<?xml version="1.0" encoding="UTF-8" standalone="no"?>
<!DOCTYPE svg PUBLIC "-//W3C//DTD SVG 1.1//EN" "http://www.w3.org/Graphics/SVG/1.1/DTD/svg11.dtd">
<svg width="100%" height="100%" viewBox="0 0 694 148" version="1.1" xmlns="http://www.w3.org/2000/svg" xmlns:xlink="http://www.w3.org/1999/xlink" xml:space="preserve" xmlns:serif="http://www.serif.com/" style="fill-rule:evenodd;clip-rule:evenodd;stroke-linejoin:round;stroke-miterlimit:2;">
    <g transform="matrix(1,0,0,1,-2218,-1677)">
        <g transform="matrix(1.312,2.37979e-17,-4.00423e-17,-1.8806,2047.09,4520.04)">
            <g id="astro-medium-black-text" serif:id="astro medium black text" transform="matrix(2.10147,0,8.55502e-33,2.10147,-907.195,-1597.6)">
                <g transform="matrix(0.290223,3.67261e-18,-6.17951e-18,-0.202474,268.74,1561.41)">
                    <g transform="matrix(1,0,0,1,196.689,393.321)">
                        <path d="M1018.84,178.002L999.658,178.002L994.487,194.241L975.245,194.241L1002.81,114.143L1023.58,114.143L1051.05,194.241L1031.8,194.241L1031.14,192.134L1031.29,192.089L1022.4,164.074L1022.41,164.074L1013.28,134.832L1004.06,164.074L1014.42,164.074L1018.84,178.002ZM980.101,139.339C980.101,142.306 979.703,145.205 978.909,148.037C978.115,150.869 976.834,153.508 975.065,155.954C973.297,158.401 970.907,160.385 967.894,161.907C964.882,163.429 961.338,164.19 957.262,164.19L944.943,164.19L944.943,194.241L926.15,194.241L926.15,114.143L957.262,114.143C961.338,114.143 964.882,114.913 967.894,116.454C970.907,117.995 973.297,119.999 975.065,122.465C976.834,124.93 978.115,127.608 978.909,130.497C979.703,133.387 980.101,136.334 980.101,139.339ZM960.948,139.455C960.948,135.641 960.072,133.031 958.318,131.624C956.565,130.218 953.425,129.515 948.899,129.515L944.943,129.515L944.943,148.817L948.989,148.817C952.106,148.817 954.504,148.567 956.183,148.066C957.861,147.565 959.075,146.64 959.824,145.292C960.574,143.943 960.948,141.998 960.948,139.455ZM1109.85,133.618L1087.01,133.618L1087.01,194.241L1068.27,194.241L1068.27,133.618L1045.43,133.618L1045.43,114.143L1109.85,114.143L1109.85,133.618ZM1179.27,133.618L1156.43,133.618L1156.43,194.241L1137.68,194.241L1137.68,133.618L1114.84,133.618L1114.84,114.143L1179.27,114.143L1179.27,133.618ZM1237.22,194.241L1190.24,194.241L1190.24,114.143L1236.45,114.143L1236.45,130.209L1209.03,130.209L1209.03,144.887L1235.2,144.887L1235.2,161.011L1209.03,161.011L1209.03,178.117L1237.22,178.117L1237.22,194.241ZM1310.14,194.241L1289.96,194.241L1285.06,180.024C1283.26,174.823 1281.64,171.018 1280.2,168.611C1278.76,166.203 1277.36,164.661 1276,163.987C1274.63,163.313 1272.87,162.976 1270.71,162.976L1268.6,162.976L1268.6,194.241L1249.81,194.241L1249.81,114.143L1281.77,114.143C1286.93,114.143 1291.15,115.491 1294.45,118.188C1297.75,120.885 1300.12,124.16 1301.58,128.012C1303.03,131.865 1303.76,135.525 1303.76,138.993C1303.76,143.038 1303.15,146.457 1301.94,149.251C1300.72,152.044 1299.44,154.076 1298.09,155.348C1296.75,156.619 1295.23,157.833 1293.55,158.988C1295.56,160.491 1297.22,162.273 1298.52,164.334C1299.82,166.395 1301.6,170.566 1303.85,176.846L1310.14,194.241ZM1284.61,139.455C1284.61,135.756 1283.66,133.175 1281.77,131.711C1279.88,130.247 1276.81,129.515 1272.56,129.515L1268.6,129.515L1268.6,148.817L1272.65,148.817C1277.23,148.817 1280.37,148.172 1282.07,146.881C1283.76,145.591 1284.61,143.115 1284.61,139.455ZM1386.35,194.241L1369.62,194.241L1337.3,149.626L1337.3,194.241L1318.68,194.241L1318.68,114.143L1335.36,114.143L1367.6,158.526L1367.6,114.143L1386.35,114.143L1386.35,194.241ZM1445.56,170.951C1445.56,175.96 1444.56,180.294 1442.57,183.954C1440.58,187.614 1437.8,190.417 1434.23,192.363C1430.66,194.308 1426.57,195.281 1421.95,195.281C1420.67,195.281 1419.09,195.175 1417.21,194.963C1415.34,194.751 1412.85,194.164 1409.75,193.2C1406.65,192.237 1403.42,190.812 1400.06,188.924L1400.06,169.275C1403.21,171.779 1406.3,173.86 1409.34,175.517C1412.39,177.173 1415.65,178.002 1419.12,178.002C1422.33,178.002 1424.4,177.318 1425.35,175.95C1426.29,174.582 1426.77,173.301 1426.77,172.107C1426.77,169.949 1425.96,168.129 1424.34,166.646C1422.72,165.162 1420.37,163.631 1417.28,162.051C1413.86,160.202 1410.87,158.189 1408.29,156.012C1405.71,153.835 1403.6,151.11 1401.97,147.835C1400.34,144.56 1399.52,140.688 1399.52,136.219C1399.52,131.904 1400.35,128.003 1401.99,124.516C1403.64,121.029 1406.16,118.246 1409.55,116.165C1412.93,114.085 1417.07,113.045 1421.95,113.045C1425.43,113.045 1428.65,113.478 1431.6,114.345C1434.55,115.212 1436.99,116.185 1438.9,117.263C1440.82,118.342 1442.14,119.19 1442.86,119.806L1442.86,138.588C1440.31,136.238 1437.47,134.138 1434.34,132.289C1431.21,130.44 1427.86,129.515 1424.29,129.515C1421.95,129.515 1420.26,130.093 1419.21,131.249C1418.16,132.405 1417.64,133.83 1417.64,135.525C1417.64,137.105 1418.16,138.473 1419.21,139.628C1420.26,140.784 1422.13,142.19 1424.83,143.847C1429.63,146.737 1433.46,149.337 1436.34,151.649C1439.22,153.961 1441.47,156.629 1443.11,159.653C1444.74,162.677 1445.56,166.443 1445.56,170.951Z" style="fill:rgb(24,23,28);"/>
                    </g>
                    <g id="astro-logo-dark.svg" transform="matrix(0.687296,-1.29917e-34,-1.62054e-32,0.687296,1246.11,459.616)">
                        <g transform="matrix(1,0,0,1,-230,-80)">
                            <path d="M65.785,121.175C61.267,117.045 59.948,108.368 61.83,102.082C65.094,106.045 69.616,107.301 74.3,108.009C81.531,109.103 88.632,108.694 95.349,105.389C96.117,105.011 96.828,104.507 97.667,103.998C98.297,105.826 98.461,107.672 98.241,109.551C97.706,114.127 95.429,117.662 91.807,120.341C90.359,121.413 88.826,122.371 87.33,123.382C82.735,126.487 81.492,130.129 83.218,135.427C83.259,135.556 83.296,135.685 83.389,136C81.043,134.95 79.329,133.421 78.023,131.411C76.644,129.289 75.988,126.942 75.953,124.403C75.936,123.167 75.936,121.92 75.77,120.702C75.364,117.732 73.969,116.402 71.343,116.325C68.647,116.247 66.514,117.913 65.949,120.538C65.905,120.739 65.843,120.938 65.78,121.172L65.785,121.175Z" style="fill:rgb(23,25,30);fill-rule:nonzero;"/>
                            <path d="M40,101.034C40,101.034 53.378,94.518 66.792,94.518L76.907,63.216C77.286,61.702 78.391,60.673 79.639,60.673C80.888,60.673 81.993,61.702 82.372,63.216L92.486,94.518C108.374,94.518 119.279,101.034 119.279,101.034C119.279,101.034 96.556,39.133 96.511,39.009C95.859,37.179 94.758,36 93.274,36L66.007,36C64.523,36 63.466,37.179 62.77,39.009C62.721,39.131 40,101.034 40,101.034Z" style="fill:rgb(23,25,30);fill-rule:nonzero;"/>
                            <path d="M181.043,81.123C181.043,86.608 174.22,89.884 164.773,89.884C158.624,89.884 156.45,88.36 156.45,85.16C156.45,81.808 159.149,80.209 165.297,80.209C170.846,80.209 175.569,80.285 181.043,80.97L181.043,81.123ZM181.118,74.342C177.744,73.581 172.645,73.123 166.572,73.123C148.877,73.123 140.555,77.314 140.555,87.065C140.555,97.198 146.253,101.083 159.449,101.083C170.621,101.083 178.193,98.264 180.968,91.331L181.417,91.331C181.342,93.007 181.267,94.683 181.267,95.979C181.267,99.559 181.867,99.864 184.791,99.864L198.587,99.864C197.837,97.731 197.387,91.712 197.387,86.532C197.387,80.97 197.612,76.78 197.612,71.143C197.612,59.639 190.715,52.325 169.121,52.325C159.824,52.325 149.477,53.925 141.605,56.287C142.354,59.41 143.404,65.734 143.929,69.847C150.752,66.648 160.424,65.276 167.922,65.276C178.268,65.276 181.118,67.638 181.118,72.438L181.118,74.342Z" style="fill:rgb(23,25,30);fill-rule:nonzero;"/>
                            <path d="M218.971,84.322C217.097,84.551 214.547,84.551 211.923,84.551C209.149,84.551 206.6,84.475 204.875,84.246C204.875,84.856 204.8,85.541 204.8,86.151C204.8,95.674 211.023,101.235 232.917,101.235C253.535,101.235 260.208,95.75 260.208,86.075C260.208,76.933 255.785,72.438 236.216,71.447C220.995,70.762 219.646,69.086 219.646,67.181C219.646,64.972 221.595,63.829 231.792,63.829C242.364,63.829 245.213,65.276 245.213,68.324L245.213,69.009C246.712,68.933 249.412,68.857 252.186,68.857C254.81,68.857 257.659,68.933 259.309,69.086C259.309,68.4 259.384,67.791 259.384,67.257C259.384,56.058 250.086,52.401 232.092,52.401C211.848,52.401 205.025,57.353 205.025,67.029C205.025,75.714 210.499,81.123 229.918,81.961C244.238,82.418 245.813,84.018 245.813,86.227C245.813,88.589 243.488,89.655 233.442,89.655C221.895,89.655 218.971,88.055 218.971,84.78L218.971,84.322Z" style="fill:rgb(23,25,30);fill-rule:nonzero;"/>
                            <path d="M284.955,44.173C279.482,49.278 269.66,54.382 264.187,55.753C264.262,58.572 264.262,63.753 264.262,66.572L269.285,66.648C269.21,72.057 269.135,78.609 269.135,82.951C269.135,93.084 274.458,100.702 291.028,100.702C298.001,100.702 302.65,99.94 308.423,98.721C307.823,94.988 307.148,89.274 306.923,84.932C303.474,86.075 299.126,86.684 294.327,86.684C287.654,86.684 284.955,84.856 284.955,79.599C284.955,75.028 284.955,70.762 285.03,66.8C293.578,66.876 302.125,67.029 307.148,67.181C307.073,63.219 307.223,57.506 307.448,53.696C300.175,53.849 292.003,53.925 285.255,53.925C285.33,50.573 285.405,47.373 285.48,44.173L284.955,44.173Z" style="fill:rgb(23,25,30);fill-rule:nonzero;"/>
                            <path d="M329.736,64.286C329.811,60.324 329.886,56.972 329.961,53.696L314.89,53.696C315.115,60.248 315.115,66.953 315.115,76.78C315.115,86.608 315.04,93.388 314.89,99.864L332.135,99.864C331.835,95.293 331.76,87.598 331.76,81.047C331.76,70.686 335.959,67.714 345.481,67.714C349.905,67.714 353.054,68.248 355.828,69.238C355.903,65.353 356.653,57.81 357.102,54.458C354.253,53.62 351.104,53.087 347.28,53.087C339.108,53.011 333.11,56.363 330.336,64.362L329.736,64.286Z" style="fill:rgb(23,25,30);fill-rule:nonzero;"/>
                            <path d="M404.808,76.475C404.808,84.78 398.81,88.665 389.363,88.665C379.991,88.665 373.993,85.008 373.993,76.475C373.993,67.943 380.066,64.743 389.363,64.743C398.735,64.743 404.808,68.171 404.808,76.475ZM420.478,76.095C420.478,59.563 407.582,52.173 389.363,52.173C371.069,52.173 358.622,59.563 358.622,76.095C358.622,92.55 370.244,101.388 389.288,101.388C408.482,101.388 420.478,92.55 420.478,76.095Z" style="fill:rgb(23,25,30);fill-rule:nonzero;"/>
                        </g>
                    </g>
                </g>
                <g transform="matrix(0.206979,2.61921e-18,-4.40706e-18,-0.144399,361.33,1527.57)">
                    <g transform="matrix(1,0,0,1,-62.7647,-16.3904)">
                        <g transform="matrix(0.996577,0.0115493,0.0115882,-0.999933,225.854,1057.39)">
                            <path d="M588.021,604.037L693.597,544.902L797.77,606.46L692.194,665.594L588.021,604.037Z" style="fill:rgb(224,56,121);"/>
                        </g>
                        <g transform="matrix(0.999933,0.0115882,0.0115684,-0.998222,223.181,1051.58)">
                            <path d="M588.704,606.561L693.917,547.32L797.74,608.982L692.518,668.218L588.704,606.561Z" style="fill:rgb(24,23,28);"/>
                        </g>
                    </g>
                    <g transform="matrix(1,0,0,1,-178.192,70.0932)">
                        <g transform="matrix(0.996577,0.0115493,0.0115882,-0.999933,225.854,1057.39)">
                            <path d="M588.021,604.037L693.597,544.902L797.77,606.46L692.194,665.594L588.021,604.037Z" style="fill:rgb(224,56,121);"/>
                        </g>
                        <g transform="matrix(0.999933,0.0115882,0.0115684,-0.998222,223.181,1051.58)">
                            <path d="M588.704,606.561L693.917,547.32L797.74,608.982L692.518,668.218L588.704,606.561Z" style="fill:rgb(24,23,28);"/>
                        </g>
                    </g>
                    <g transform="matrix(1,0,0,1,52.6534,70.0932)">
                        <g transform="matrix(0.996577,0.0115493,0.0115882,-0.999933,225.854,1057.39)">
                            <path d="M588.021,604.037L693.597,544.902L797.77,606.46L692.194,665.594L588.021,604.037Z" style="fill:rgb(224,56,121);"/>
                        </g>
                        <g transform="matrix(0.999933,0.0115882,0.0115684,-0.998222,223.181,1051.58)">
                            <path d="M588.704,606.561L693.917,547.32L797.74,608.982L692.518,668.218L588.704,606.561Z" style="fill:rgb(24,23,28);"/>
                        </g>
                    </g>
                </g>
            </g>
        </g>
    </g>
</svg>
